<?xml version="1.0" standalone="no"?>
<svg xmlns:xlink="http://www.w3.org/1999/xlink" id="wave" style="transform:rotate(0deg); transition: 0.3s" viewBox="0 0 1440 130" version="1.1" xmlns="http://www.w3.org/2000/svg"><defs><linearGradient id="sw-gradient-0" x1="0" x2="0" y1="1" y2="0"><stop stop-color="rgba(243, 106, 62, 1)" offset="0%"/><stop stop-color="rgba(255, 179, 11, 1)" offset="100%"/></linearGradient></defs><path style="transform:translate(0, 0px); opacity:1" fill="url(#sw-gradient-0)" d="M0,26L12.6,36.8C25.3,48,51,69,76,67.2C101.1,65,126,39,152,23.8C176.8,9,202,4,227,10.8C252.6,17,278,35,303,49.8C328.4,65,354,78,379,75.8C404.2,74,429,56,455,52C480,48,505,56,531,60.7C555.8,65,581,65,606,73.7C631.6,82,657,100,682,106.2C707.4,113,733,108,758,95.3C783.2,82,808,61,834,62.8C858.9,65,884,91,909,104C934.7,117,960,117,985,104C1010.5,91,1036,65,1061,65C1086.3,65,1112,91,1137,95.3C1162.1,100,1187,82,1213,80.2C1237.9,78,1263,91,1288,86.7C1313.7,82,1339,61,1364,47.7C1389.5,35,1415,30,1440,28.2C1465.3,26,1491,26,1516,23.8C1541.1,22,1566,17,1592,19.5C1616.8,22,1642,30,1667,41.2C1692.6,52,1718,65,1743,75.8C1768.4,87,1794,95,1806,99.7L1818.9,104L1818.9,130L1806.3,130C1793.7,130,1768,130,1743,130C1717.9,130,1693,130,1667,130C1642.1,130,1617,130,1592,130C1566.3,130,1541,130,1516,130C1490.5,130,1465,130,1440,130C1414.7,130,1389,130,1364,130C1338.9,130,1314,130,1288,130C1263.2,130,1238,130,1213,130C1187.4,130,1162,130,1137,130C1111.6,130,1086,130,1061,130C1035.8,130,1011,130,985,130C960,130,935,130,909,130C884.2,130,859,130,834,130C808.4,130,783,130,758,130C732.6,130,707,130,682,130C656.8,130,632,130,606,130C581.1,130,556,130,531,130C505.3,130,480,130,455,130C429.5,130,404,130,379,130C353.7,130,328,130,303,130C277.9,130,253,130,227,130C202.1,130,177,130,152,130C126.3,130,101,130,76,130C50.5,130,25,130,13,130L0,130Z"/></svg>